<?xml version="1.0" encoding="UTF-8" standalone="no"?>
<!-- Created with Inkscape (http://www.inkscape.org/) -->

<svg
   xmlns:ns0="http://www.iki.fi/pav/software/textext/"
   xmlns:dc="http://purl.org/dc/elements/1.1/"
   xmlns:cc="http://creativecommons.org/ns#"
   xmlns:rdf="http://www.w3.org/1999/02/22-rdf-syntax-ns#"
   xmlns:svg="http://www.w3.org/2000/svg"
   xmlns="http://www.w3.org/2000/svg"
   xmlns:sodipodi="http://sodipodi.sourceforge.net/DTD/sodipodi-0.dtd"
   xmlns:inkscape="http://www.inkscape.org/namespaces/inkscape"
   width="30.384045mm"
   height="7.0386281mm"
   viewBox="0 0 107.66 24.940021"
   id="svg2"
   version="1.1"
   inkscape:version="0.91 r13725"
   sodipodi:docname="1d_wave_eqn.svg">
  <sodipodi:namedview
     id="base"
     pagecolor="#ffffff"
     bordercolor="#666666"
     borderopacity="1.0"
     inkscape:pageopacity="0.0"
     inkscape:pageshadow="2"
     inkscape:zoom="0.98994949"
     inkscape:cx="229.20158"
     inkscape:cy="-117.68787"
     inkscape:document-units="px"
     inkscape:current-layer="layer1"
     showgrid="false"
     inkscape:window-width="1362"
     inkscape:window-height="724"
     inkscape:window-x="0"
     inkscape:window-y="20"
     inkscape:window-maximized="0"
     fit-margin-top="0"
     fit-margin-left="0"
     fit-margin-right="0"
     fit-margin-bottom="0" />
  <defs
     id="defs4" />
  <metadata
     id="metadata7">
    <rdf:RDF>
      <cc:Work
         rdf:about="">
        <dc:format>image/svg+xml</dc:format>
        <dc:type
           rdf:resource="http://purl.org/dc/dcmitype/StillImage" />
        <dc:title></dc:title>
      </cc:Work>
    </rdf:RDF>
  </metadata>
  <g
     id="layer1"
     inkscape:groupmode="layer"
     inkscape:label="Layer 1"
     transform="translate(-49.26001,-67.95999)">
    <g
       ns0:preamble="/home/ubermensch/workspace/quazar/git/amanabt/include.ini"
       ns0:text="$\\frac{\\partial u}{\\partial t} + \\frac{\\partial F}{\\partial t} = 0$"
       word-spacing="normal"
       letter-spacing="normal"
       font-size-adjust="none"
       font-stretch="normal"
       font-weight="normal"
       font-variant="normal"
       font-style="normal"
       stroke-miterlimit="10.433"
       xml:space="preserve"
       transform="matrix(2,0,0,-2,-400,1500)"
       id="content"
       style="font-style:normal;font-variant:normal;font-weight:normal;font-stretch:normal;letter-spacing:normal;word-spacing:normal;text-anchor:start;fill:none;fill-opacity:1;fill-rule:evenodd;stroke:#000000;stroke-linecap:butt;stroke-linejoin:miter;stroke-miterlimit:10.43299961;stroke-dasharray:none;stroke-dashoffset:0;stroke-opacity:1"><path
         id="path3342"
         d="m 228.29,713.4 -0.01,0.04 -0.01,0.04 -0.02,0.04 -0.01,0.03 -0.02,0.04 -0.01,0.04 -0.02,0.04 -0.02,0.03 -0.02,0.04 -0.02,0.03 -0.03,0.04 -0.02,0.03 -0.03,0.03 -0.03,0.03 -0.03,0.04 -0.03,0.03 -0.03,0.02 -0.04,0.03 -0.03,0.03 -0.04,0.02 -0.04,0.02 -0.04,0.03 -0.05,0.02 -0.04,0.01 -0.05,0.02 -0.05,0.01 -0.05,0.02 -0.05,0.01 -0.06,0 -0.05,0.01 -0.06,0 -0.06,0 0.03,-0.19 c 0.67,0 0.9,-0.53 0.9,-0.95 0,-0.47 -0.46,-1.95 -1.63,-1.95 l 0,0 c -0.79,0 -0.88,0.59 -0.88,0.81 0,0.27 0.19,0.95 0.26,1.13 0.13,0.32 0.56,0.96 1.35,0.96 l -0.03,0.19 c -0.98,0 -1.79,-0.73 -2.04,-1.36 -0.04,-0.11 -0.14,-0.4 -0.14,-0.68 0,-0.48 0.38,-1.27 1.47,-1.27 1.8,0 2.54,2.25 2.54,3.24 0,1.19 -0.79,1.87 -1.72,1.87 -1.14,0 -1.45,-0.9 -1.45,-1.12 0,-0.05 0.03,-0.25 0.28,-0.25 0.24,0 0.39,0.22 0.39,0.38 0,0.19 -0.14,0.25 -0.27,0.27 0.35,0.52 0.92,0.52 1.04,0.52 0.52,0 1.14,-0.33 1.14,-1.32 0,-0.3 -0.03,-0.54 -0.17,-1.1 z"
         inkscape:connector-curvature="0"
         style="fill:#000000;stroke-width:0" /><path
         id="path3344"
         d="m 232.26,712.17 -0.01,-0.01 0,-0.01 -0.01,-0.02 0,-0.01 0,-0.02 -0.01,-0.01 0,-0.02 -0.01,-0.02 0,-0.03 -0.01,-0.04 -0.01,-0.03 0,-0.01 -0.01,-0.02 0,-0.02 -0.01,-0.01 0,-0.02 0,-0.01 -0.01,-0.01 0,-0.02 -0.01,-0.01 0,-0.01 0,-0.01 0,-0.01 -0.01,-0.01 0,0 0,-0.01 0,0 0,0 0,0 0,0 -0.01,-0.01 0,0 0,0 c -0.13,-0.21 -0.41,-0.59 -0.84,-0.59 -0.48,0 -0.48,0.45 -0.48,0.58 0,0.41 0.19,0.91 0.39,1.41 0.05,0.14 0.1,0.25 0.1,0.36 0,0.36 -0.31,0.6 -0.67,0.6 -0.69,0 -1.01,-0.96 -1.01,-1.07 0,-0.09 0.1,-0.09 0.12,-0.09 0.1,0 0.11,0.04 0.13,0.11 0.16,0.58 0.47,0.85 0.74,0.85 0.12,0 0.18,-0.07 0.18,-0.24 0,-0.16 -0.06,-0.31 -0.13,-0.47 -0.38,-0.96 -0.38,-1.16 -0.38,-1.35 0,-0.12 0,-0.44 0.26,-0.66 0.21,-0.17 0.48,-0.23 0.72,-0.23 0.44,0 0.68,0.24 0.91,0.47 0.15,-0.45 0.62,-0.47 0.7,-0.47 0.24,0 0.42,0.14 0.55,0.37 0.16,0.28 0.25,0.68 0.25,0.7 0,0.09 -0.09,0.09 -0.11,0.09 -0.1,0 -0.11,-0.03 -0.16,-0.21 -0.08,-0.33 -0.21,-0.75 -0.51,-0.75 -0.18,0 -0.23,0.16 -0.23,0.34 0,0.12 0.06,0.37 0.11,0.55 0.05,0.19 0.12,0.48 0.15,0.63 l 0.16,0.62 c 0.04,0.18 0.12,0.48 0.12,0.52 0,0.14 -0.11,0.22 -0.23,0.22 -0.26,0 -0.31,-0.2 -0.36,-0.43 z"
         inkscape:connector-curvature="0"
         style="fill:#000000;stroke-width:0" /><line
         id="line3346"
         y2="709.62"
         x2="234.02"
         y1="709.62"
         x1="224.63"
         style="stroke-width:0.398" /><path
         id="path3348"
         d="m 229.14,706.04 -0.01,0.04 -0.01,0.04 -0.01,0.04 -0.02,0.04 -0.01,0.03 -0.02,0.04 -0.02,0.04 -0.01,0.03 -0.03,0.04 -0.02,0.03 -0.02,0.04 -0.03,0.03 -0.02,0.04 -0.03,0.03 -0.03,0.03 -0.03,0.03 -0.04,0.03 -0.03,0.02 -0.04,0.03 -0.04,0.02 -0.04,0.03 -0.04,0.02 -0.04,0.02 -0.05,0.02 -0.04,0.01 -0.05,0.02 -0.05,0.01 -0.06,0.01 -0.05,0.01 -0.06,0 -0.06,0.01 -0.06,0 0.03,-0.2 c 0.68,0 0.9,-0.53 0.9,-0.95 0,-0.46 -0.45,-1.95 -1.62,-1.95 l 0,0 c -0.79,0 -0.88,0.59 -0.88,0.81 0,0.27 0.19,0.96 0.26,1.13 0.12,0.32 0.55,0.96 1.34,0.96 l -0.03,0.2 c -0.97,0 -1.78,-0.73 -2.03,-1.36 -0.04,-0.12 -0.14,-0.41 -0.14,-0.69 0,-0.48 0.37,-1.27 1.46,-1.27 1.81,0 2.54,2.25 2.54,3.24 0,1.19 -0.78,1.88 -1.71,1.88 -1.14,0 -1.45,-0.91 -1.45,-1.13 0,-0.05 0.03,-0.25 0.27,-0.25 0.25,0 0.39,0.22 0.39,0.39 0,0.18 -0.14,0.25 -0.27,0.26 0.35,0.53 0.92,0.53 1.04,0.53 0.53,0 1.15,-0.33 1.15,-1.32 0,-0.3 -0.04,-0.55 -0.17,-1.11 z"
         inkscape:connector-curvature="0"
         style="fill:#000000;stroke-width:0" /><path
         id="path3350"
         d="m 231.88,706.44 0.71,0 c 0.13,0 0.22,0 0.22,0.16 0,0.09 -0.09,0.09 -0.21,0.09 l -0.66,0 0.26,1.03 c 0,0.04 0.02,0.07 0.02,0.1 0,0.13 -0.1,0.23 -0.24,0.23 -0.17,0 -0.28,-0.12 -0.33,-0.3 -0.05,-0.18 0.04,0.16 -0.26,-1.06 l -0.71,0 c -0.14,0 -0.23,0 -0.23,-0.15 0,-0.1 0.09,-0.1 0.21,-0.1 l 0.66,0 -0.41,-1.64 c -0.04,-0.18 -0.1,-0.43 -0.1,-0.52 0,-0.41 0.35,-0.66 0.74,-0.66 0.78,0 1.22,0.97 1.22,1.06 0,0.1 -0.09,0.1 -0.11,0.1 -0.09,0 -0.09,-0.02 -0.15,-0.14 -0.19,-0.44 -0.55,-0.83 -0.93,-0.83 -0.15,0 -0.25,0.09 -0.25,0.35 0,0.06 0.03,0.21 0.04,0.28 z"
         inkscape:connector-curvature="0"
         style="fill:#000000;stroke-width:0" /><path
         id="path3352"
         d="m 241.5,709.41 2.78,0 c 0.14,0 0.33,0 0.33,0.2 0,0.2 -0.19,0.2 -0.33,0.2 l -2.78,0 0,2.79 c 0,0.14 0,0.33 -0.2,0.33 -0.2,0 -0.2,-0.19 -0.2,-0.33 l 0,-2.79 -2.79,0 c -0.13,0 -0.32,0 -0.32,-0.2 0,-0.2 0.19,-0.2 0.32,-0.2 l 2.79,0 0,-2.79 c 0,-0.14 0,-0.32 0.2,-0.32 0.2,0 0.2,0.18 0.2,0.32 z"
         inkscape:connector-curvature="0"
         style="fill:#000000;stroke-width:0" /><path
         id="path3354"
         d="m 252.25,713.4 -0.01,0.04 -0.01,0.04 -0.01,0.04 -0.02,0.03 -0.01,0.04 -0.02,0.04 -0.02,0.04 -0.02,0.03 -0.02,0.04 -0.02,0.03 -0.02,0.04 -0.03,0.03 -0.03,0.03 -0.02,0.03 -0.03,0.04 -0.04,0.03 -0.03,0.02 -0.03,0.03 -0.04,0.03 -0.04,0.02 -0.04,0.02 -0.04,0.03 -0.04,0.02 -0.05,0.01 -0.05,0.02 -0.04,0.01 -0.06,0.02 -0.05,0.01 -0.05,0 -0.06,0.01 -0.06,0 -0.06,0 0.03,-0.19 c 0.68,0 0.9,-0.53 0.9,-0.95 0,-0.47 -0.45,-1.95 -1.63,-1.95 l 0,0 c -0.78,0 -0.87,0.59 -0.87,0.81 0,0.27 0.18,0.95 0.25,1.13 0.13,0.32 0.56,0.96 1.35,0.96 l -0.03,0.19 c -0.97,0 -1.78,-0.73 -2.03,-1.36 -0.05,-0.11 -0.14,-0.4 -0.14,-0.68 0,-0.48 0.37,-1.27 1.46,-1.27 1.81,0 2.54,2.25 2.54,3.24 0,1.19 -0.78,1.87 -1.72,1.87 -1.13,0 -1.45,-0.9 -1.45,-1.12 0,-0.05 0.04,-0.25 0.28,-0.25 0.25,0 0.39,0.22 0.39,0.38 0,0.19 -0.14,0.25 -0.27,0.27 0.35,0.52 0.92,0.52 1.04,0.52 0.52,0 1.14,-0.33 1.14,-1.32 0,-0.3 -0.03,-0.54 -0.16,-1.1 z"
         inkscape:connector-curvature="0"
         style="fill:#000000;stroke-width:0" /><path
         id="path3356"
         d="m 255.65,713.29 0.75,0 c 0.53,0 0.62,-0.08 0.62,-0.31 0,-0.11 0,-0.12 -0.05,-0.32 -0.01,-0.04 -0.02,-0.06 -0.02,-0.08 0,-0.07 0.05,-0.11 0.12,-0.11 0.09,0 0.1,0.04 0.13,0.17 l 0.38,1.47 c 0,0.02 0.03,0.13 0.03,0.14 0,0.07 -0.05,0.11 -0.12,0.11 -0.1,0 -0.11,-0.04 -0.14,-0.17 -0.14,-0.54 -0.34,-0.65 -0.94,-0.65 l -0.7,0 0.44,1.75 c 0.06,0.22 0.07,0.24 0.36,0.24 l 1.07,0 c 0.93,0 1.1,-0.22 1.1,-0.8 0,-0.23 -0.03,-0.38 -0.03,-0.44 0,-0.05 0.02,-0.11 0.12,-0.11 0.1,0 0.11,0.06 0.12,0.18 l 0.13,1.21 c 0.02,0.21 -0.03,0.21 -0.2,0.21 l -3.72,0 c -0.14,0 -0.23,0 -0.23,-0.15 0,-0.1 0.09,-0.1 0.23,-0.1 0,0 0.13,0 0.26,-0.01 0.15,-0.02 0.16,-0.03 0.16,-0.1 0,-0.05 -0.02,-0.12 -0.03,-0.16 l -0.91,-3.64 c -0.07,-0.28 -0.08,-0.32 -0.62,-0.32 -0.12,0 -0.21,0 -0.21,-0.15 0,-0.07 0.05,-0.11 0.11,-0.11 0.2,0 0.72,0.03 0.92,0.03 l 0.54,0 c 0.18,0 0.37,-0.03 0.55,-0.03 0.05,0 0.15,0 0.15,0.16 0,0.1 -0.08,0.1 -0.24,0.1 -0.02,0 -0.19,0 -0.37,0.01 -0.14,0.01 -0.21,0.02 -0.21,0.12 0,0.03 0,0.05 0.02,0.12 z"
         inkscape:connector-curvature="0"
         style="fill:#000000;stroke-width:0" /><line
         id="line3358"
         y2="709.62"
         x2="259.39999"
         y1="709.62"
         x1="248.59"
         style="stroke-width:0.398" /><path
         id="path3360"
         d="m 253.81,706.04 -0.01,0.04 -0.01,0.04 -0.01,0.04 -0.02,0.04 -0.01,0.03 -0.02,0.04 -0.02,0.04 -0.02,0.03 -0.02,0.04 -0.02,0.03 -0.02,0.04 -0.03,0.03 -0.03,0.04 -0.02,0.03 -0.03,0.03 -0.04,0.03 -0.03,0.03 -0.03,0.02 -0.04,0.03 -0.04,0.02 -0.04,0.03 -0.04,0.02 -0.04,0.02 -0.05,0.02 -0.05,0.01 -0.04,0.02 -0.06,0.01 -0.05,0.01 -0.05,0.01 -0.06,0 -0.06,0.01 -0.06,0 0.03,-0.2 c 0.68,0 0.9,-0.53 0.9,-0.95 0,-0.46 -0.45,-1.95 -1.63,-1.95 l 0,0 c -0.78,0 -0.87,0.59 -0.87,0.81 0,0.27 0.18,0.96 0.25,1.13 0.13,0.32 0.56,0.96 1.35,0.96 l -0.03,0.2 c -0.98,0 -1.78,-0.73 -2.03,-1.36 -0.05,-0.12 -0.14,-0.41 -0.14,-0.69 0,-0.48 0.37,-1.27 1.46,-1.27 1.81,0 2.54,2.25 2.54,3.24 0,1.19 -0.78,1.88 -1.72,1.88 -1.13,0 -1.45,-0.91 -1.45,-1.13 0,-0.05 0.04,-0.25 0.28,-0.25 0.25,0 0.39,0.22 0.39,0.39 0,0.18 -0.14,0.25 -0.27,0.26 0.35,0.53 0.92,0.53 1.04,0.53 0.52,0 1.14,-0.33 1.14,-1.32 0,-0.3 -0.03,-0.55 -0.16,-1.11 z"
         inkscape:connector-curvature="0"
         style="fill:#000000;stroke-width:0" /><path
         id="path3362"
         d="m 256.54,706.44 0.71,0 c 0.14,0 0.23,0 0.23,0.16 0,0.09 -0.09,0.09 -0.21,0.09 l -0.66,0 0.25,1.03 c 0.01,0.04 0.03,0.07 0.03,0.1 0,0.13 -0.1,0.23 -0.24,0.23 -0.18,0 -0.28,-0.12 -0.33,-0.3 -0.05,-0.18 0.04,0.16 -0.27,-1.06 l -0.71,0 c -0.13,0 -0.22,0 -0.22,-0.15 0,-0.1 0.08,-0.1 0.21,-0.1 l 0.66,0 -0.41,-1.64 c -0.04,-0.18 -0.1,-0.43 -0.1,-0.52 0,-0.41 0.34,-0.66 0.74,-0.66 0.78,0 1.22,0.97 1.22,1.06 0,0.1 -0.09,0.1 -0.12,0.1 -0.08,0 -0.09,-0.02 -0.14,-0.14 -0.2,-0.44 -0.55,-0.83 -0.94,-0.83 -0.14,0 -0.24,0.09 -0.24,0.35 0,0.06 0.03,0.21 0.04,0.28 z"
         inkscape:connector-curvature="0"
         style="fill:#000000;stroke-width:0" /><path
         id="path3364"
         d="m 270.21,710.38 0.03,0 0.02,0 0.03,0 0.02,0 0.01,0 0.02,0 0.01,0.01 0.02,0 0.01,0 0.01,0 0.02,0.01 0.01,0 0.01,0.01 0.01,0 0.02,0.01 0.01,0 0.01,0.01 0.01,0.01 0.01,0 0.01,0.01 0,0.01 0.01,0.01 0,0.01 0,0 0.01,0.01 0,0 0,0.01 0.01,0.01 0,0 0,0.01 0,0.01 0,0.01 0,0 0,0.01 0.01,0.01 0,0.01 0,0.01 c 0,0.2 -0.19,0.2 -0.33,0.2 l -5.97,0 c -0.14,0 -0.33,0 -0.33,-0.2 0,-0.2 0.19,-0.2 0.34,-0.2 z"
         inkscape:connector-curvature="0"
         style="fill:#000000;stroke-width:0" /><path
         id="path3366"
         d="m 270.22,708.45 0.01,0 0.01,0 0.03,0 0.03,0 0.01,0 0.02,0 0.01,0 0.01,0 0.02,0.01 0.01,0 0.02,0 0.01,0 0.01,0.01 0.01,0 0.02,0.01 0.01,0 0.01,0.01 0.01,0.01 0.01,0 0.01,0.01 0.01,0.01 0,0.01 0,0 0.01,0.01 0,0 0,0.01 0.01,0 0,0.01 0,0.01 0.01,0 0,0.01 0,0.01 0,0.01 0,0 0,0.01 0,0.01 0.01,0.01 0,0.01 0,0.01 c 0,0.2 -0.19,0.2 -0.34,0.2 l -5.95,0 c -0.15,0 -0.34,0 -0.34,-0.2 0,-0.2 0.19,-0.2 0.33,-0.2 z"
         inkscape:connector-curvature="0"
         style="fill:#000000;stroke-width:0" /><path
         id="path3368"
         d="m 278.46,710.31 0,0.15 0,0.15 -0.01,0.15 0,0.15 -0.01,0.15 -0.01,0.14 -0.02,0.15 -0.02,0.15 -0.02,0.15 -0.03,0.14 -0.03,0.15 -0.04,0.14 -0.04,0.14 -0.05,0.14 -0.06,0.14 -0.03,0.07 -0.03,0.07 c -0.46,0.96 -1.27,1.12 -1.69,1.12 -0.6,0 -1.33,-0.26 -1.73,-1.19 -0.32,-0.68 -0.37,-1.46 -0.37,-2.26 0,-0.75 0.04,-1.64 0.44,-2.4 0.43,-0.81 1.16,-1.01 1.65,-1.01 l 0,0.22 c -0.39,0 -0.98,0.25 -1.16,1.21 -0.11,0.6 -0.11,1.51 -0.11,2.1 0,0.64 0,1.29 0.08,1.83 0.19,1.19 0.94,1.28 1.19,1.28 0.33,0 0.99,-0.18 1.17,-1.17 0.1,-0.55 0.1,-1.31 0.1,-1.94 0,-0.75 0,-1.42 -0.11,-2.06 -0.15,-0.95 -0.71,-1.25 -1.16,-1.25 l 0,0 0,-0.22 c 0.54,0 1.29,0.21 1.73,1.16 0.32,0.69 0.37,1.46 0.37,2.25 z"
         inkscape:connector-curvature="0"
         style="fill:#000000;stroke-width:0" /></g>  </g>
</svg>
